<?xml version="1.0" encoding="utf-8"?>
<!-- Generator: Adobe Illustrator 19.1.0, SVG Export Plug-In . SVG Version: 6.00 Build 0)  -->
<svg version="1.1" id="Layer_1" xmlns="http://www.w3.org/2000/svg" xmlns:xlink="http://www.w3.org/1999/xlink" x="0px" y="0px"
	 viewBox="0 0 203 87" enable-background="new 0 0 203 87" xml:space="preserve">
<g>
	<g>
		<linearGradient id="SVGID_1_" gradientUnits="userSpaceOnUse" x1="36.3377" y1="98.1467" x2="165.6318" y2="-31.1474">
			<stop  offset="0" style="stop-color:#D9D9D9"/>
			<stop  offset="0.1786" style="stop-color:#FFFFFF"/>
		</linearGradient>
		<path fill="url(#SVGID_1_)" d="M201.4,46.9c0,7.7-0.5,15.2-1.1,16.6c-0.6,1.4-10.3,2.6-18,2.6H19.6c-7.7,0-15.2-0.5-16.6-1.1
			c-1.4-0.6-2.6-10.3-2.6-18V20.1C0.5,12.4,1,5,1.7,3.6S11.9,1,19.6,1h162.7c7.7,0,15.2,0.5,16.6,1.1s2.6,10.3,2.6,18V46.9z"/>
	</g>
	
		<text transform="matrix(1.0562 0 0 1 7.0092 82.7114)" fill="#FFFFFF" font-family="'HelveticaNeue-CondensedBold'" font-size="13.86px">AQUÍ O ALLÁ, TIENES DERECHOS</text>
	<path fill="#2E8045" d="M56.5,3.7c0-1.5,1.3-2.8,2.8-2.8h139.4c1.5,0,2.8,1.3,2.8,2.8v58.2c0,1.5-1.3,2.8-2.8,2.8H59.3
		c-1.5,0-2.8-1.3-2.8-2.8V3.7L56.5,3.7z"/>
	<g>
		<path fill="#FFFFFF" d="M197.7,64.2H5.4c-2.1,0-3.8-1.7-3.8-3.8V5.1c0-2.1,1.7-3.8,3.8-3.8h192.3c2.1,0,3.8,1.7,3.8,3.8v55.4
			C201.5,62.5,199.8,64.2,197.7,64.2z M5.4,3C4.2,3,3.3,3.9,3.3,5.1v55.4c0,1.1,0.9,2.1,2.1,2.1h192.3c1.1,0,2.1-0.9,2.1-2.1V5.1
			c0-1.1-0.9-2.1-2.1-2.1H5.4z"/>
		<path fill="none" stroke="#FFFFFF" stroke-width="4" stroke-miterlimit="3.8637" d="M101.5,32.8"/>
	</g>
	<path fill="#2E8045" d="M197.5,66H5.5c-3.1,0-5.6-2.5-5.6-5.6V5.2c0-3.1,2.5-5.6,5.6-5.6h192c3.1,0,5.6,2.5,5.6,5.6v55.2
		C203.1,63.5,200.6,66,197.5,66z M5.5,2.2c-1.7,0-3,1.3-3,3v55.2c0,1.7,1.3,3,3,3h192c1.7,0,3-1.3,3-3V5.2c0-1.7-1.3-3-3-3H5.5z"/>
	<g>
		<path fill="#2E8045" d="M129,32.8"/>
	</g>
	<g>
		<path fill-rule="evenodd" clip-rule="evenodd" fill="#D1D627" d="M83.3,39.8h2.4l3.6,10.6l3.6-10.6h2.4v12.5h-1.6v-7.4
			c0-0.3,0-0.7,0-1.3c0-0.6,0-1.2,0-1.9l-3.6,10.5h-1.7l-3.6-10.5v0.4c0,0.3,0,0.8,0,1.4c0,0.6,0,1.1,0,1.4v7.4h-1.6V39.8z"/>
		<rect x="97.1" y="39.8" fill-rule="evenodd" clip-rule="evenodd" fill="#D1D627" width="1.7" height="12.5"/>
		<path fill-rule="evenodd" clip-rule="evenodd" fill="#D1D627" d="M108.8,40.2c1.2,0.7,2,1.8,2.3,3.4h-1.7c-0.2-0.9-0.6-1.6-1.3-2
			c-0.6-0.4-1.5-0.6-2.4-0.6c-1.2,0-2.1,0.4-2.9,1.3c-0.8,0.9-1.2,2.2-1.2,3.9c0,1.5,0.3,2.7,1,3.6c0.7,0.9,1.7,1.4,3.2,1.4
			c1.1,0,2.1-0.3,2.8-1c0.7-0.7,1.1-1.7,1.1-3.2h-3.9v-1.4h5.5v6.7h-1.1l-0.4-1.6c-0.6,0.6-1.1,1.1-1.5,1.3
			c-0.7,0.4-1.7,0.6-2.8,0.6c-1.5,0-2.8-0.5-3.8-1.4c-1.2-1.2-1.7-2.9-1.7-5c0-2.1,0.6-3.8,1.7-5c1.1-1.2,2.5-1.8,4.2-1.8
			C106.9,39.5,107.9,39.7,108.8,40.2z"/>
		<path fill-rule="evenodd" clip-rule="evenodd" fill="#D1D627" d="M118.6,45.5c0.8,0,1.4-0.2,1.9-0.5c0.5-0.3,0.7-0.9,0.7-1.7
			c0-0.9-0.3-1.5-1-1.8c-0.3-0.2-0.8-0.3-1.4-0.3h-4.1v4.3H118.6z M112.9,39.8h5.8c1,0,1.7,0.1,2.4,0.4c1.2,0.5,1.8,1.5,1.8,3
			c0,0.7-0.2,1.4-0.5,1.8c-0.3,0.5-0.7,0.9-1.3,1.1c0.5,0.2,0.9,0.5,1.1,0.8c0.2,0.3,0.4,0.8,0.4,1.6l0.1,1.7c0,0.5,0.1,0.8,0.1,1.1
			c0.1,0.4,0.3,0.7,0.5,0.8v0.3h-2.1c-0.1-0.1-0.1-0.2-0.1-0.4c0-0.2-0.1-0.5-0.1-1l-0.1-2.1c0-0.8-0.3-1.4-0.9-1.6
			c-0.3-0.2-0.8-0.2-1.5-0.2h-3.9v5.4h-1.7V39.8z"/>
		<path fill-rule="evenodd" clip-rule="evenodd" fill="#D1D627" d="M130.6,47.2l-1.9-5.5l-2,5.5H130.6z M127.8,39.8h1.9l4.5,12.5
			h-1.9l-1.3-3.7h-4.9l-1.4,3.7h-1.7L127.8,39.8z"/>
		<polygon fill-rule="evenodd" clip-rule="evenodd" fill="#D1D627" points="134.6,39.8 136.6,39.8 142.9,49.9 142.9,39.8 
			144.5,39.8 144.5,52.3 142.6,52.3 136.2,42.2 136.2,52.3 134.6,52.3 		"/>
		<polygon fill-rule="evenodd" clip-rule="evenodd" fill="#D1D627" points="155.1,39.8 155.1,41.3 150.9,41.3 150.9,52.3 
			149.2,52.3 149.2,41.3 145,41.3 145,39.8 		"/>
		<polygon fill-rule="evenodd" clip-rule="evenodd" fill="#D1D627" points="155.7,39.8 164.8,39.8 164.8,41.3 157.3,41.3 
			157.3,45.1 164.2,45.1 164.2,46.6 157.3,46.6 157.3,50.8 164.9,50.8 164.9,52.3 155.7,52.3 		"/>
		<rect x="166.1" y="50.4" fill-rule="evenodd" clip-rule="evenodd" fill="#D1D627" width="1.8" height="1.9"/>
		<path fill-rule="evenodd" clip-rule="evenodd" fill="#D1D627" d="M170.1,39.8h2.4l3.6,10.6l3.6-10.6h2.4v12.5h-1.6v-7.4
			c0-0.3,0-0.7,0-1.3c0-0.6,0-1.2,0-1.9L177,52.3h-1.7l-3.6-10.5v0.4c0,0.3,0,0.8,0,1.4c0,0.6,0,1.1,0,1.4v7.4h-1.6V39.8z"/>
		<polygon fill-rule="evenodd" clip-rule="evenodd" fill="#D1D627" points="184.6,52.3 182.6,52.3 187,45.9 182.8,39.8 185,39.8 
			188.1,44.6 191.3,39.8 193.3,39.8 189.1,45.9 193.5,52.3 191.4,52.3 188.1,47.2 		"/>
	</g>
	<g>
		<polygon fill-rule="evenodd" clip-rule="evenodd" fill="#FFFFFF" points="107.2,11.3 96.2,36.3 96.1,36.3 85.1,11.3 83.9,11.3 
			83.9,37.3 84.7,37.3 84.7,12.2 84.7,12.2 95.8,37.3 96.6,37.3 107.6,12.2 107.7,12.2 107.7,37.3 108.4,37.3 108.4,11.3 		"/>
		
			<polygon fill-rule="evenodd" clip-rule="evenodd" fill="none" stroke="#FFFFFF" stroke-width="0.8477" stroke-miterlimit="3.8637" points="
			107.2,11.3 96.2,36.3 96.1,36.3 85.1,11.3 83.9,11.3 83.9,37.3 84.7,37.3 84.7,12.2 84.7,12.2 95.8,37.3 96.6,37.3 107.6,12.2 
			107.7,12.2 107.7,37.3 108.4,37.3 108.4,11.3 		"/>
	</g>
	<g>
		<path fill-rule="evenodd" clip-rule="evenodd" fill="#FFFFFF" d="M130.1,11.3v16.3c0,3.1-0.7,5.5-2.1,7.1
			c-1.4,1.6-3.7,2.4-6.7,2.4c-3,0-5.2-0.8-6.7-2.4c-1.4-1.6-2.1-4-2.1-7.1V11.3h-0.7v16.3c0,3.5,0.8,6.1,2.4,7.8
			c1.6,1.7,4,2.5,7.1,2.5c3.1,0,5.5-0.8,7.1-2.5c1.6-1.7,2.4-4.3,2.4-7.8V11.3H130.1z"/>
		
			<path fill-rule="evenodd" clip-rule="evenodd" fill="none" stroke="#FFFFFF" stroke-width="0.8477" stroke-miterlimit="3.8637" d="
			M130.1,11.3v16.3c0,3.1-0.7,5.5-2.1,7.1c-1.4,1.6-3.7,2.4-6.7,2.4c-3,0-5.2-0.8-6.7-2.4c-1.4-1.6-2.1-4-2.1-7.1V11.3h-0.7v16.3
			c0,3.5,0.8,6.1,2.4,7.8c1.6,1.7,4,2.5,7.1,2.5c3.1,0,5.5-0.8,7.1-2.5c1.6-1.7,2.4-4.3,2.4-7.8V11.3H130.1z"/>
	</g>
	<g>
		<path fill-rule="evenodd" clip-rule="evenodd" fill="#FFFFFF" d="M146.3,11.3V30c0,1.4-0.1,2.5-0.4,3.4c-0.3,0.9-0.7,1.7-1.2,2.2
			c-0.5,0.6-1.2,1-2,1.2c-0.8,0.2-1.7,0.4-2.7,0.4c-2,0-3.6-0.5-4.6-1.6c-1-1.1-1.6-2.7-1.6-4.8v-1.6H133v1.6c0,1,0.1,2,0.4,2.8
			c0.3,0.8,0.7,1.6,1.2,2.2c0.6,0.6,1.3,1.1,2.1,1.5c0.9,0.4,1.9,0.5,3.2,0.5c1.3,0,2.4-0.2,3.3-0.5c0.9-0.3,1.7-0.8,2.2-1.5
			c0.6-0.7,1-1.4,1.2-2.3c0.3-0.9,0.4-1.9,0.4-3V11.3H146.3z"/>
		
			<path fill-rule="evenodd" clip-rule="evenodd" fill="none" stroke="#FFFFFF" stroke-width="0.8477" stroke-miterlimit="3.8637" d="
			M146.3,11.3V30c0,1.4-0.1,2.5-0.4,3.4c-0.3,0.9-0.7,1.7-1.2,2.2c-0.5,0.6-1.2,1-2,1.2c-0.8,0.2-1.7,0.4-2.7,0.4
			c-2,0-3.6-0.5-4.6-1.6c-1-1.1-1.6-2.7-1.6-4.8v-1.6H133v1.6c0,1,0.1,2,0.4,2.8c0.3,0.8,0.7,1.6,1.2,2.2c0.6,0.6,1.3,1.1,2.1,1.5
			c0.9,0.4,1.9,0.5,3.2,0.5c1.3,0,2.4-0.2,3.3-0.5c0.9-0.3,1.7-0.8,2.2-1.5c0.6-0.7,1-1.4,1.2-2.3c0.3-0.9,0.4-1.9,0.4-3V11.3H146.3
			z"/>
	</g>
	<g>
		<polygon fill-rule="evenodd" clip-rule="evenodd" fill="#FFFFFF" points="151.3,36.5 151.3,24.1 166.9,24.1 166.9,23.4 
			151.3,23.4 151.3,12 167.9,12 167.9,11.3 150.6,11.3 150.6,37.3 168,37.3 168,36.5 		"/>
		
			<polygon fill-rule="evenodd" clip-rule="evenodd" fill="none" stroke="#FFFFFF" stroke-width="0.8477" stroke-miterlimit="3.8637" points="
			151.3,36.5 151.3,24.1 166.9,24.1 166.9,23.4 151.3,23.4 151.3,12 167.9,12 167.9,11.3 150.6,11.3 150.6,37.3 168,37.3 168,36.5 
					"/>
	</g>
	<path fill="#F89A1C" d="M73.6,28c-1.4,2-1.9,3.9-3.6,4.9c-1.8,1.1-4.9,2.2-8.2,2.7c-3.4,0.5-4.5,1.2-4.4,3.1
		c0.1,1.4,2.7,4.4-0.4,5.1c-1,0.2-2.3,1.4-2.1,3.7c0.1,0.8-1.5,1-1.8,1.9c-0.5,1.4,0.1,1.2-0.2,2.4c-0.4,1.2-0.5,1.7-1.8,2.8
		c-0.9,0.8-1.9,1.5-1.9,3.4c0,0.9-16.4-13.4-5.4-30.6c9.6-14.9,29-13.8,38-5.2C82.4,22.7,78.2,21.5,73.6,28z M11.4,21.7
		c-1.2-7.1-5.9-6.8-5-7.2C19,8.1,38,10.9,40,27c2.3,18.5-20.2,28.9-19.7,28c0.9-1.8,0.3-2.7-0.2-3.6c-0.7-1.3-0.7-1.8-0.4-3
		c0.2-1.2,0.8-0.9,0.9-2.3c0.1-1-1.3-1.5-0.8-2.2c1.3-2.1,0.7-3.5-0.2-3.9c-2.6-1.3,1.3-3.6,2.1-5c1-1.7,0.3-2.6-2.7-3.8
		c-2.9-1.1-5.3-2.8-6.5-4.2C11.3,25.7,11.8,23.9,11.4,21.7z"/>
	<g>
		<g>
			<defs>
				<path id="SVGID_2_" d="M39,39c-5.6,10.7-18.6,18.5-28.3,18.5c0,0,12.1-2.3,11.7-7.7c-0.1-1.8-0.2-2.2,0.4-3.6
					c0.6-1.3,1.1-0.8,1.6-2.3c0.4-1.1-0.9-2.1-0.2-2.8c2-2,1.7-3.7,0.9-4.5c-2.3-2.4,2.4-3.7,3.6-5c1.5-1.7,1.1-2.9-1.7-5.2
					c-2.6-2.3-4.9-5-5.7-7c-0.8-2,0.5-4,0.7-6.6c0.5-6.9-0.9-8.4-1.6-8.7l-0.3,0c0,0,0.1-0.1,0.3,0c14.4,1.6,21.1,13.4,21.2,23.9
					C46.8,18,58.9,8.1,73.4,9.4c0.2,0,0.3,0,0.3,0l-0.3,0c-0.8,0.1-2.9,1.3-5.7,8c-1.1,2.5-0.8,4.7-2.5,6.4
					c-1.7,1.7-5.1,3.9-8.8,5.5c-3.7,1.7-4.7,2.8-4.1,4.7c0.5,1.5,4.4,3.6,1,5.5c-1.1,0.6-2.2,2.2-1.3,4.5c0.3,0.8-1.4,1.5-1.5,2.6
					c-0.2,1.6,0.5,1.1,0.4,2.5c-0.1,1.4-0.3,1.8-1.3,3.5c-2.9,5,7.4,9.6,7.4,9.6C47.9,60.2,39.2,50.3,39,39z"/>
			</defs>
			<use xlink:href="#SVGID_2_"  overflow="visible" fill="#B9D65F"/>
			<clipPath id="SVGID_3_">
				<use xlink:href="#SVGID_2_"  overflow="visible"/>
			</clipPath>
			<g clip-path="url(#SVGID_3_)">
				<g>
					<g>
						<defs>
							<path id="SVGID_4_" d="M1.2,5.2c0-2.4,1.9-4.3,4.3-4.3h192c2.4,0,4.3,1.9,4.3,4.3v55.2c0,2.4-1.9,4.3-4.3,4.3H5.5
								c-2.4,0-4.3-1.9-4.3-4.3V5.2z"/>
						</defs>
						<clipPath id="SVGID_5_">
							<use xlink:href="#SVGID_4_"  overflow="visible"/>
						</clipPath>
						<g clip-path="url(#SVGID_5_)">
							<g>
								<defs>
									<polygon id="SVGID_6_" points="93.2,-40.5 165.3,-74.2 224.5,52.7 152.3,86.3 93.2,-40.5 									"/>
								</defs>
								<clipPath id="SVGID_7_">
									<use xlink:href="#SVGID_6_"  overflow="visible"/>
								</clipPath>
								<g clip-path="url(#SVGID_7_)">
									<polygon fill="#B9D65F" points="93.2,-40.5 99.2,-43.3 158.3,83.5 152.3,86.3 93.2,-40.5 									"/>
									<polygon fill="#B8D55F" points="99.2,-43.3 105.2,-46.1 164.3,80.7 158.3,83.5 99.2,-43.3 									"/>
									<polygon fill="#B7D35E" points="105.2,-46.1 111.2,-48.9 170.4,77.9 164.3,80.7 105.2,-46.1 									"/>
									<polygon fill="#B5D15D" points="111.2,-48.9 117.2,-51.7 176.4,75.1 170.4,77.9 111.2,-48.9 									"/>
									<polygon fill="#B4D05D" points="117.2,-51.7 123.2,-54.6 182.4,72.3 176.4,75.1 117.2,-51.7 									"/>
									<polygon fill="#B3D05D" points="123.2,-54.6 129.2,-57.4 188.4,69.5 182.4,72.3 123.2,-54.6 									"/>
									<polygon fill="#B2CE5C" points="129.2,-57.4 135.3,-60.2 194.4,66.7 188.4,69.5 129.2,-57.4 									"/>
									<polygon fill="#B1CE5C" points="135.3,-60.2 141.3,-63 200.4,63.9 194.4,66.7 135.3,-60.2 									"/>
									<polygon fill="#B0CC5B" points="141.3,-63 147.3,-65.8 206.4,61.1 200.4,63.9 141.3,-63 									"/>
									<polygon fill="#AFCB5B" points="147.3,-65.8 153.3,-68.6 212.5,58.3 206.4,61.1 147.3,-65.8 									"/>
									<polygon fill="#AFCB5A" points="153.3,-68.6 159.3,-71.4 218.5,55.5 212.5,58.3 153.3,-68.6 									"/>
									<polygon fill="#AEC95A" points="159.3,-71.4 165.3,-74.2 224.5,52.7 218.5,55.5 159.3,-71.4 									"/>
								</g>
							</g>
							<g>
								<defs>
									<polygon id="SVGID_8_" points="5.7,0.3 93.4,-40.6 152.5,86.2 64.8,127.1 5.7,0.3 									"/>
								</defs>
								<clipPath id="SVGID_9_">
									<use xlink:href="#SVGID_8_"  overflow="visible"/>
								</clipPath>
								<g clip-path="url(#SVGID_9_)">
									<polygon fill="#B9D65F" points="5.7,0.3 49.5,-20.2 108.7,106.7 64.8,127.1 5.7,0.3 									"/>
									<polygon fill="#B9D65F" points="49.5,-20.2 93.4,-40.6 152.5,86.2 108.7,106.7 49.5,-20.2 									"/>
								</g>
							</g>
							<g>
								<defs>
									<polygon id="SVGID_10_" points="-21.5,12.9 5.9,0.2 65,127 37.7,139.8 -21.5,12.9 									"/>
								</defs>
								<clipPath id="SVGID_11_">
									<use xlink:href="#SVGID_10_"  overflow="visible"/>
								</clipPath>
								<g clip-path="url(#SVGID_11_)">
									<polygon fill="#B1CD5B" points="-21.5,12.9 -18.4,11.5 40.7,138.4 37.7,139.8 -21.5,12.9 									"/>
									<polygon fill="#B2CE5C" points="-18.4,11.5 -15.4,10.1 43.7,137 40.7,138.4 -18.4,11.5 									"/>
									<polygon fill="#B3CF5C" points="-15.4,10.1 -12.4,8.7 46.8,135.5 43.7,137 -15.4,10.1 									"/>
									<polygon fill="#B3D05D" points="-12.4,8.7 -9.3,7.3 49.8,134.1 46.8,135.5 -12.4,8.7 									"/>
									<polygon fill="#B4D05D" points="-9.3,7.3 -6.3,5.8 52.9,132.7 49.8,134.1 -9.3,7.3 									"/>
									<polygon fill="#B6D25E" points="-6.3,5.8 -3.3,4.4 55.9,131.3 52.9,132.7 -6.3,5.8 									"/>
									<polygon fill="#B7D35E" points="-3.3,4.4 -0.2,3 58.9,129.9 55.9,131.3 -3.3,4.4 									"/>
									<polygon fill="#B8D55F" points="-0.2,3 2.8,1.6 62,128.5 58.9,129.9 -0.2,3 									"/>
									<polygon fill="#B9D65F" points="2.8,1.6 5.9,0.2 65,127 62,128.5 2.8,1.6 									"/>
								</g>
							</g>
						</g>
					</g>
					<g>
						<defs>
							<path id="SVGID_12_" d="M1.2,5.2c0-2.4,1.9-4.3,4.3-4.3h192c2.4,0,4.3,1.9,4.3,4.3v55.2c0,2.4-1.9,4.3-4.3,4.3H5.5
								c-2.4,0-4.3-1.9-4.3-4.3V5.2z"/>
						</defs>
						<clipPath id="SVGID_13_">
							<use xlink:href="#SVGID_12_"  overflow="visible"/>
						</clipPath>
						<g clip-path="url(#SVGID_13_)">
							<g>
								<path fill="#91BA3D" d="M56.5,3.7c0-1.5,1.3-2.8,2.8-2.8h139.4c1.5,0,2.8,1.3,2.8,2.8v58.2c0,1.5-1.3,2.8-2.8,2.8H59.3
									c-1.5,0-2.8-1.3-2.8-2.8V3.7L56.5,3.7z"/>
								<path fill="#91BA3D" d="M129,32.8"/>
							</g>
							<g>
								<path fill="none" stroke="#B9D65F" stroke-width="4" stroke-miterlimit="3.8637" d="M2.4,5.1c0-1.6,1.3-2.9,2.9-2.9h192.3
									c1.6,0,2.9,1.3,2.9,2.9v55.4c0,1.6-1.3,2.9-2.9,2.9H5.4c-1.6,0-2.9-1.3-2.9-2.9V5.1L2.4,5.1z"/>
								<path fill="none" stroke="#B9D65F" stroke-width="4" stroke-miterlimit="3.8637" d="M101.5,32.8"/>
							</g>
						</g>
						
							<use xlink:href="#SVGID_12_"  overflow="visible" fill-rule="evenodd" clip-rule="evenodd" fill="none" stroke="#91BA3D" stroke-width="6" stroke-miterlimit="3.8637"/>
					</g>
				</g>
				<g>
					<path fill="#BBC532" d="M73.6,28c-1.4,2-1.9,3.9-3.6,4.9c-1.8,1.1-4.9,2.2-8.2,2.7c-3.4,0.5-4.5,1.2-4.4,3.1
						c0.1,1.4,2.7,4.4-0.4,5.1c-1,0.2-2.3,1.4-2.1,3.7c0.1,0.8-1.5,1-1.8,1.9c-0.5,1.4,0.1,1.2-0.2,2.4c-0.4,1.2-0.5,1.7-1.8,2.8
						c-0.9,0.8-1.9,1.5-1.9,3.4c0,0.9-16.4-13.4-5.4-30.6c9.6-14.9,29-13.8,38-5.2C82.4,22.7,78.2,21.5,73.6,28z M11.4,21.7
						c-1.2-7.1-5.9-6.8-5-7.2C19,8.1,38,10.9,40,27c2.3,18.5-20.2,28.9-19.7,28c0.9-1.8,0.3-2.7-0.2-3.6c-0.7-1.3-0.7-1.8-0.4-3
						c0.2-1.2,0.8-0.9,0.9-2.3c0.1-1-1.3-1.5-0.8-2.2c1.3-2.1,0.7-3.5-0.2-3.9c-2.6-1.3,1.3-3.6,2.1-5c1-1.7,0.3-2.6-2.7-3.8
						c-2.9-1.1-5.3-2.8-6.5-4.2C11.3,25.7,11.8,23.9,11.4,21.7z"/>
				</g>
			</g>
		</g>
	</g>
	<g>
		<path fill-rule="evenodd" clip-rule="evenodd" fill="#FFFFFF" d="M172.9,38.3V25.5h10.3c1.6,0,2.8,0.2,3.8,0.5
			c0.9,0.3,1.7,0.8,2.2,1.4c0.5,0.6,0.8,1.3,1,2.2c0.2,0.9,0.3,1.9,0.3,3c0,0.4,0,0.9,0,1.5c0,0.5,0.1,1.1,0.1,1.6
			c0.1,0.5,0.1,1,0.2,1.5c0.1,0.5,0.2,0.8,0.3,1.1h0.8c-0.1-0.2-0.2-0.5-0.3-1c-0.1-0.5-0.1-1-0.2-1.5c-0.1-0.6-0.1-1.1-0.1-1.7
			c0-0.6,0-1.1,0-1.5c0-1.1-0.1-2.1-0.2-2.9c-0.1-0.9-0.4-1.6-0.8-2.3c-0.4-0.6-0.9-1.1-1.6-1.5c-0.7-0.4-1.6-0.7-2.8-0.8V25
			c1.9-0.4,3.4-1.2,4.4-2.4c1-1.2,1.5-2.7,1.5-4.6c-0.1-2.4-0.7-4.2-2.1-5.3c-1.3-1.1-3.4-1.7-6.3-1.7h-11.2v27.3H172.9z
			 M172.9,24.7v-13h10.6c2.6,0,4.5,0.5,5.6,1.6c1.1,1.1,1.7,2.6,1.8,4.5c0,1.2-0.2,2.2-0.7,3.1c-0.4,0.8-1,1.5-1.7,2.1
			c-0.7,0.6-1.5,1-2.5,1.2c-0.9,0.3-1.9,0.4-2.9,0.4H172.9z"/>
		
			<path fill-rule="evenodd" clip-rule="evenodd" fill="none" stroke="#FFFFFF" stroke-width="0.8477" stroke-miterlimit="3.8637" d="
			M172.9,38.3V25.5h10.3c1.6,0,2.8,0.2,3.8,0.5c0.9,0.3,1.7,0.8,2.2,1.4c0.5,0.6,0.8,1.3,1,2.2c0.2,0.9,0.3,1.9,0.3,3
			c0,0.4,0,0.9,0,1.5c0,0.5,0.1,1.1,0.1,1.6c0.1,0.5,0.1,1,0.2,1.5c0.1,0.5,0.2,0.8,0.3,1.1h0.8c-0.1-0.2-0.2-0.5-0.3-1
			c-0.1-0.5-0.1-1-0.2-1.5c-0.1-0.6-0.1-1.1-0.1-1.7c0-0.6,0-1.1,0-1.5c0-1.1-0.1-2.1-0.2-2.9c-0.1-0.9-0.4-1.6-0.8-2.3
			c-0.4-0.6-0.9-1.1-1.6-1.5c-0.7-0.4-1.6-0.7-2.8-0.8V25c1.9-0.4,3.4-1.2,4.4-2.4c1-1.2,1.5-2.7,1.5-4.6c-0.1-2.4-0.7-4.2-2.1-5.3
			c-1.3-1.1-3.4-1.7-6.3-1.7h-11.2v27.3H172.9z M172.9,24.7v-13h10.6c2.6,0,4.5,0.5,5.6,1.6c1.1,1.1,1.7,2.6,1.8,4.5
			c0,1.2-0.2,2.2-0.7,3.1c-0.4,0.8-1,1.5-1.7,2.1c-0.7,0.6-1.5,1-2.5,1.2c-0.9,0.3-1.9,0.4-2.9,0.4H172.9z"/>
	</g>
</g>
</svg>
